Coordinates
version=1
nRows=15
nColumns=42
inDegrees=yes

Units are S.I. units (second, meters, Newtons, ...)
If the header above contains a line with 'inDegrees', this indicates whether rotational values are in degrees (yes) or radians (no).

endheader
time	pelvis_tilt	pelvis_list	pelvis_rotation	pelvis_tx	pelvis_ty	pelvis_tz	hip_flexion_r	hip_adduction_r	hip_rotation_r	knee_angle_r	knee_adduction_r	knee_angle_r_beta	ankle_angle_r	subtalar_angle_r	mtp_angle_r	hip_flexion_l	hip_adduction_l	hip_rotation_l	knee_angle_l	knee_adduction_l	knee_angle_l_beta	ankle_angle_l	subtalar_angle_l	mtp_angle_l	lumbar_extension	lumbar_bending	lumbar_rotation	arm_flex_r	arm_add_r	arm_rot_r	elbow_flex_r	pro_sup_r	wrist_flex_r	wrist_dev_r	arm_flex_l	arm_add_l	arm_rot_l	elbow_flex_l	pro_sup_l	wrist_flex_l	wrist_dev_l
      0.31000000	     11.55617396	      0.88260619	      1.89408513	     -0.77636625	      0.86158309	     -0.32959891	     15.51492412	      1.38651636	    -13.70889463	     16.01703724	     -5.06127208	      0.27955004	      3.06629438	     10.63801286	     -8.59014967	    -29.82136024	     -1.31315533	    -31.60864265	     18.55594688	     -1.14326256	      0.32386237	     22.32185513	     29.68426944	     -8.59014967	    -24.61454325	     -2.47729472	     -7.40366604	     -3.46797531	      0.03711543	    -33.92342150	     30.05086034	     90.00000001	      0.00000000	      0.00000000	      7.90828651	     -7.24079364	     -8.63614882	     46.53973167	     90.00000001	      0.00000000	      0.00000000
      0.32000000	     11.41407194	      0.50540915	      1.86795414	     -0.76310836	      0.86107072	     -0.32859765	     15.61684465	      2.09609718	    -13.31953608	     17.40911971	     -5.44949159	      0.30384646	      2.54153563	     10.18498093	     -8.57114173	    -29.82285097	     -1.82361372	    -31.56123206	     19.71427525	     -1.83735057	      0.34407901	     21.23900227	     29.12094733	     -8.57114173	    -24.29976383	     -2.03881423	     -7.21221972	     -3.47668003	      0.01138891	    -33.89410265	     30.08128136	     90.00000001	      0.00000000	      0.00000000	      7.61736402	     -7.12172977	     -8.66930155	     46.45624873	     90.00000001	      0.00000000	      0.00000000
      0.33000000	     11.34078018	      0.06022582	      1.76521244	     -0.74988553	      0.86093731	     -0.32751006	     15.62303375	      2.88627300	    -12.75819240	     18.88639982	     -5.79635659	      0.32962986	      2.18414724	      9.57468198	     -8.55931289	    -29.82186401	     -2.38032111	    -31.49054210	     20.98213226	     -2.49231082	      0.36620729	     19.94939652	     28.60528885	     -8.55931289	    -24.08927874	     -1.53332418	     -7.00527252	     -3.39298211	     -0.01132912	    -33.86425601	     30.09210623	     90.00000001	      0.00000000	      0.00000000	      7.29926974	     -7.01262048	     -8.75673791	     46.32415813	     90.00000001	      0.00000000	      0.00000000
      0.34000000	     11.32235685	     -0.50561656	      1.62618614	     -0.73680921	      0.86142832	     -0.32632721	     15.23475364	      3.99175810	    -10.37125300	     20.00617650	     -5.84693964	      0.34917365	      1.33178653	      4.65713940	     -8.46175759	    -29.81717715	     -2.91110913	    -30.86974917	     22.18825991	     -3.11379482	      0.38725819	     17.70475408	     26.21552507	     -8.46175759	    -23.97858740	     -0.92311709	     -6.71686643	     -3.27927530	     -0.13751461	    -33.53566215	     30.17151946	     90.00000001	      0.00000000	      0.00000000	      7.02364355	     -6.70277991	     -9.57011080	     46.05861114	     90.00000001	      0.00000000	      0.00000000
      0.35000000	     11.46016226	     -1.06256244	      1.47912381	     -0.72359776	      0.86209973	     -0.32509453	     14.92063850	      4.87110698	     -9.68207727	     21.53468676	     -6.00978518	      0.37585119	      1.65906108	      4.13346203	     -8.44996573	    -29.80498510	     -3.61462428	    -30.82415372	     23.79754744	     -3.76013795	      0.41534556	     16.04750734	     25.58670326	     -8.44996573	    -24.01946003	     -0.34508456	     -6.44272501	     -3.10331829	     -0.17443745	    -33.45815192	     30.20444804	     90.00000001	      0.00000000	      0.00000000	      6.64861245	     -6.55317063	     -9.63525483	     45.90686559	     90.00000001	      0.00000000	      0.00000000
      0.36000000	     11.65116508	     -1.70605518	      1.24169384	     -0.71061626	      0.86336028	     -0.32378021	     14.19898440	      5.98473882	     -7.36478196	     22.63321520	     -5.77832218	      0.39502413	      1.72098962	     -0.13431136	     -8.35418377	    -29.79264682	     -4.19150206	    -29.85565677	     25.37117671	     -4.18990337	      0.44281057	     13.29004815	     22.36485840	     -8.35418377	    -24.16181316	      0.32442939	     -6.12296685	     -2.93974136	     -0.29183357	    -32.81830648	     30.36296963	     90.00000001	      0.00000000	      0.00000000	      6.30879735	     -6.30545982	    -10.35478293	     45.66313863	     90.00000001	      0.00000000	      0.00000000
      0.37000000	     12.03215747	     -2.36389020	      1.08906928	     -0.69754070	      0.86475084	     -0.32246773	     13.34588505	      6.97052718	     -6.49403647	     23.76096930	     -5.75832312	      0.41470715	      2.74731905	     -1.10645590	     -8.33334846	    -29.76716065	     -4.97972476	    -29.51225677	     27.31145309	     -4.78733022	      0.47667478	     10.86320642	     21.02027907	     -8.33334846	    -24.49289418	      0.99992554	     -5.84312885	     -2.68741026	     -0.37543416	    -32.63781163	     30.51615625	     90.00000001	      0.00000000	      0.00000000	      5.90095758	     -6.17424907	    -10.51566708	     45.53999688	     90.00000001	      0.00000000	      0.00000000
      0.38000000	     12.44628767	     -2.90673994	      0.90644693	     -0.68471738	      0.86654301	     -0.32114343	     12.18838473	      7.84312698	     -4.81741173	     24.49814394	     -5.42764548	      0.42757327	      3.24087135	     -3.66988222	     -8.27622371	    -29.72505251	     -5.48329529	    -27.71791549	     29.30199583	     -4.84374585	      0.51141630	      8.13834367	     16.77453239	     -8.27622371	    -24.90195401	      1.52251885	     -5.61195258	     -2.50162948	     -0.46725063	    -32.01467133	     30.88712469	     90.00000001	      0.00000000	      0.00000000	      5.48270665	     -6.00375647	    -11.08994833	     45.44177476	     90.00000001	      0.00000000	      0.00000000
      0.39000000	     13.01827426	     -3.54991017	      0.81985019	     -0.67195168	      0.86843808	     -0.31982426	     10.78385723	      8.74025747	     -4.00407870	     24.96709696	     -5.24055532	      0.43575805	      4.04651322	     -4.90304353	     -8.22149522	    -29.64239639	     -6.22404492	    -26.25506875	     31.63527114	     -4.94430476	      0.55213964	      5.63700924	     13.33351598	     -8.22149522	    -25.47608301	      2.15919371	     -5.37185553	     -2.31132139	     -0.56592206	    -31.35326498	     31.27598802	     90.00000001	      0.00000000	      0.00000000	      5.09754931	     -5.86330757	    -11.50226001	     45.35826726	     90.00000001	      0.00000000	      0.00000000
      0.40000000	     13.66038983	     -4.12363655	      0.76985453	     -0.65933150	      0.87039918	     -0.31855264	      9.19122863	      9.52342341	     -3.61074353	     25.16362581	     -5.15386245	      0.43918812	      5.02456467	     -5.29084586	     -8.17450386	    -29.46232001	     -6.90935822	    -24.53369829	     34.22246297	     -4.88449859	      0.59729466	      3.19339983	      9.43132465	     -8.17450386	    -26.12906493	      2.71419429	     -5.17553625	     -2.12571391	     -0.65513001	    -30.69491767	     31.83251658	     90.00000001	      0.00000000	      0.00000000	      4.66228489	     -5.76181023	    -11.86598956	     45.35756330	     90.00000001	      0.00000000	      0.00000000
      0.41000000	     14.23167915	     -4.64103953	      0.79474449	     -0.64696563	      0.87227836	     -0.31735757	      7.61491517	     10.17604356	     -3.70304661	     25.13177625	     -5.12799376	      0.43863224	      6.00824630	     -5.05143367	     -8.11918125	    -28.96686248	     -7.59960266	    -22.65537889	     37.15762342	     -4.70190088	      0.64852287	      1.04846290	      5.08371978	     -8.11918125	    -26.72236989	      3.21616310	     -5.01842124	     -2.00168835	     -0.78028479	    -29.82457538	     32.45309598	     90.00000001	      0.00000000	      0.00000000	      4.25360498	     -5.67686935	    -12.23382573	     45.33019216	     90.00000001	      0.00000000	      0.00000000
      0.42000000	     14.48182558	     -5.03925717	      0.83335573	     -0.63510962	      0.87383109	     -0.31621019	      6.36810666	     10.68458187	     -3.99763606	     24.94478979	     -5.19290123	      0.43536871	      7.00332656	     -4.38381686	     -8.06909243	    -27.73851665	     -8.24344598	    -21.15740875	     40.59069347	     -4.74922549	      0.70844125	     -0.74098813	      1.01765330	     -8.06909243	    -27.02068720	      3.59107138	     -4.91373200	     -1.81214046	     -0.82567983	    -28.98816192	     33.10881975	     90.00000001	      0.00000000	      0.00000000	      3.88289800	     -5.58655684	    -12.56249200	     45.28622744	     90.00000001	      0.00000000	      0.00000000
      0.43000000	     14.41440678	     -5.38956756	      0.98241875	     -0.62371473	      0.87501877	     -0.31511891	      5.44720443	     11.09484524	     -4.38267278	     24.60684620	     -5.15101983	      0.42947048	      7.67315429	     -3.97679875	     -8.05620559	    -25.78421574	     -8.98806011	    -20.52417773	     44.37711700	     -5.46315016	      0.77452680	     -1.31347460	     -0.22023697	     -8.05620559	    -27.02080746	      3.93867981	     -4.93503445	     -1.45648801	     -0.75874419	    -28.72743042	     33.54781545	     90.00000001	      0.00000000	      0.00000000	      3.51322930	     -5.62896411	    -12.63557070	     45.21181511	     90.00000001	      0.00000000	      0.00000000
      0.44000000	     14.30081828	     -5.53462018	      1.03544570	     -0.61253084	      0.87627450	     -0.31412761	      4.61981624	     11.28532088	     -5.11162040	     24.31044579	     -5.32360603	      0.42429732	      8.77944995	     -2.49598868	     -8.01689565	    -23.77603992	     -9.33011288	    -18.64372020	     48.09398936	     -5.18293364	      0.83939846	     -3.25669389	     -7.17096732	     -8.01689565	    -26.98691759	      4.04811472	     -4.82761307	     -1.38436668	     -0.84734332	    -27.73607348	     34.43996998	     90.00000001	      0.00000000	      0.00000000	      3.23981570	     -5.46328591	    -13.12018034	     45.07151960	     90.00000001	      0.00000000	      0.00000000
      0.45000000	     14.14022016	     -5.64674296	      1.14863290	     -0.60156708	      0.87746103	     -0.31311773	      3.81722194	     11.43113034	     -5.91362931	     23.88882372	     -5.45076332	      0.41693863	      9.59979590	     -1.09159158	     -7.97930660	    -21.57034829	     -9.71912607	    -17.55666889	     51.68118015	     -5.41770632	      0.90200675	     -3.95029415	    -10.80175104	     -7.97930660	    -26.91954332	      4.11798795	     -4.77021730	     -1.21471025	     -0.89284618	    -26.73797472	     35.13776953	     90.00000001	      0.00000000	      0.00000000	      2.99198304	     -5.38149350	    -13.42422876	     44.93023227	     90.00000001	      0.00000000	      0.00000000
